<svg width="44" height="44" viewBox="0 0 44 44" fill="none" xmlns="http://www.w3.org/2000/svg">
<path d="M38.885 29.1317C37.7187 31.8899 35.8945 34.3204 33.5718 36.2107C31.2491 38.1011 28.4988 39.3936 25.5612 39.9754C22.6236 40.5573 19.5881 40.4106 16.7203 39.5483C13.8525 38.686 11.2395 37.1343 9.1099 35.0289C6.98029 32.9235 5.39885 30.3284 4.50386 27.4706C3.60886 24.6128 3.42756 21.5792 3.97579 18.6352C4.52402 15.6911 5.7851 12.9262 7.64878 10.5821C9.51245 8.23798 11.922 6.3861 14.6667 5.18835M40.3334 22C40.3334 19.5925 39.8592 17.2085 38.9378 14.9842C38.0165 12.7599 36.6661 10.7388 34.9637 9.0364C33.2612 7.33399 31.2402 5.98356 29.0159 5.06223C26.7916 4.14089 24.4076 3.66669 22 3.66669V22H40.3334Z" stroke="#004AAA" stroke-width="4" stroke-linecap="round" stroke-linejoin="round"/>
</svg>
