<svg width="20" height="20" viewBox="0 0 20 20" fill="none" xmlns="http://www.w3.org/2000/svg">
<g clip-path="url(#clip0_27_308)">
<path d="M15 6.66671H15.8333C16.7174 6.66671 17.5652 7.0179 18.1904 7.64302C18.8155 8.26814 19.1667 9.11599 19.1667 10C19.1667 10.8841 18.8155 11.7319 18.1904 12.3571C17.5652 12.9822 16.7174 13.3334 15.8333 13.3334H15M15 6.66671H1.66667V14.1667C1.66667 15.0508 2.01786 15.8986 2.64298 16.5237C3.2681 17.1489 4.11595 17.5 5.00001 17.5H11.6667C12.5507 17.5 13.3986 17.1489 14.0237 16.5237C14.6488 15.8986 15 15.0508 15 14.1667V6.66671ZM5 0.833374V3.33337M8.33334 0.833374V3.33337M11.6667 0.833374V3.33337" stroke="#004AAA" stroke-width="2" stroke-linecap="round" stroke-linejoin="round"/>
</g>
<defs>
<clipPath id="clip0_27_308">
<rect width="20" height="20" fill="white"/>
</clipPath>
</defs>
</svg>
