<svg width="83" height="52" viewBox="0 0 83 52" fill="none" xmlns="http://www.w3.org/2000/svg">
<path d="M23.75 35.8722C23.75 38.3956 21.545 40.5 18.75 40.5C15.955 40.5 13.75 38.3956 13.75 35.8722C13.75 33.3487 15.955 31.2444 18.75 31.2444C21.545 31.2444 23.75 33.3487 23.75 35.8722Z" stroke="black"/>
<rect x="17.5278" y="30" width="2.53175" height="0.744361" fill="black"/>
<rect x="17.5278" y="30" width="2.53175" height="0.744361" fill="black"/>
<rect x="17.5278" y="30" width="2.53175" height="0.744361" fill="black"/>
<rect width="2.46602" height="0.765317" transform="matrix(0.725953 0.687745 -0.725953 0.687745 22.4484 30.9925)" fill="black"/>
<rect width="2.46602" height="0.765317" transform="matrix(0.725953 0.687745 -0.725953 0.687745 22.4484 30.9925)" fill="black"/>
<rect width="2.46602" height="0.765317" transform="matrix(0.725953 0.687745 -0.725953 0.687745 22.4484 30.9925)" fill="black"/>
<path d="M10.2312 41.3112L18.6995 15.1201L27.1678 41.3112H10.2312Z" stroke="black"/>
<path d="M33.4146 4.32653L18.75 14.6938L4.08542 4.32653L33.4146 4.32653Z" stroke="black"/>
<path d="M30.1656 28.84V28.24H33.8456L39.6056 40.48L38.9456 42H36.3456L30.1656 28.84ZM41.4656 36.22H41.3856L40.0456 39.46L38.3256 35.78L41.4656 28.24H45.2656V42H41.4656V36.22ZM30.1656 30.82L33.8456 38.66V42H30.1656V30.82ZM51.0809 28.24H51.4209L53.0009 33.72L50.7009 42H46.7009L51.0809 28.24ZM55.5809 39.56H52.2409L53.0809 36.48H54.6809L52.3209 28.24H55.9809L60.3609 42H56.2809L55.5809 39.56ZM59.773 28.24H71.033V31.44H59.773V28.24ZM63.393 32.24H67.393V42H63.393V32.24ZM72.6141 28.24H76.6141V42H72.6141V28.24ZM77.4541 38.78H81.7341V42H77.4541V38.78Z" fill="black"/>
</svg>
