<svg width="38" height="52" viewBox="0 0 38 52" fill="none" xmlns="http://www.w3.org/2000/svg">
<path d="M23.75 35.8722C23.75 38.3956 21.545 40.5 18.75 40.5C15.955 40.5 13.75 38.3956 13.75 35.8722C13.75 33.3487 15.955 31.2444 18.75 31.2444C21.545 31.2444 23.75 33.3487 23.75 35.8722Z" stroke="white"/>
<rect x="17.5278" y="30" width="2.53175" height="0.744361" fill="white"/>
<rect x="17.5278" y="30" width="2.53175" height="0.744361" fill="white"/>
<rect x="17.5278" y="30" width="2.53175" height="0.744361" fill="white"/>
<rect width="2.46602" height="0.765317" transform="matrix(0.725953 0.687745 -0.725953 0.687745 22.4484 30.9925)" fill="white"/>
<rect width="2.46602" height="0.765317" transform="matrix(0.725953 0.687745 -0.725953 0.687745 22.4484 30.9925)" fill="white"/>
<rect width="2.46602" height="0.765317" transform="matrix(0.725953 0.687745 -0.725953 0.687745 22.4484 30.9925)" fill="white"/>
<path d="M10.2312 41.3112L18.6995 15.1201L27.1678 41.3112H10.2312Z" stroke="white"/>
<path d="M33.4146 4.32653L18.75 14.6938L4.08542 4.32653L33.4146 4.32653Z" stroke="white"/>
</svg>
